<svg width="359" height="656" viewBox="0 0 359 656" fill="none" xmlns="http://www.w3.org/2000/svg">
<path d="M205.56 20.3516C205.56 20.3516 201.323 9.46759 205.56 6.44397C209.797 3.42029 228.554 -1.41943 234.605 0.396606C240.66 2.20959 243.685 6.44391 246.711 13.3978C249.737 20.3516 246.105 31.2357 246.711 36.0754C247.314 40.912 243.685 43.9357 240.054 45.7517C236.422 47.5648 224.926 51.7991 218.874 48.7754C212.823 45.7517 206.772 36.6807 206.772 36.6807L186.195 56.0304L182.383 143.72C182.383 143.72 212.217 145.428 211.006 179.649C211.006 179.649 226.74 178.188 225.528 186.654C224.32 195.123 211.611 204.799 207.98 204.194C204.349 203.588 198.297 212.054 198.297 212.054C198.297 212.054 186.8 221.125 186.195 225.965C185.592 230.801 194.669 242.291 198.903 253.78C203.14 265.272 203.746 280.391 206.166 284.622C208.586 288.856 232.185 328.164 235.817 338.446C239.448 348.725 215.155 384.406 215.155 384.406C215.155 384.406 234.605 399.525 243.685 420.085C252.762 440.646 244.288 453.951 244.288 461.811C244.288 469.675 250.945 487.817 256.391 513.214C261.839 538.614 256.391 561.596 266.679 559.78C276.967 557.967 303.593 555.548 344.138 565.222C384.68 574.898 403.439 579.132 414.333 579.738C425.225 580.34 424.619 577.922 434.907 586.387C445.193 594.856 451.247 599.693 448.218 606.345C445.193 612.998 424.013 623.918 420.988 634.787C417.962 645.653 412.516 655.33 397.994 655.935C383.471 656.537 362.292 652.911 365.317 646.864C368.343 640.817 372.577 638.395 378.023 637.793C383.471 637.188 385.285 634.164 388.311 629.93C391.337 625.698 393.757 620.253 393.757 617.23C393.757 614.206 391.942 602.716 379.84 601.506C367.737 600.298 261.233 600.298 253.365 598.482C245.499 596.669 238.237 597.274 230.371 586.387C222.503 575.503 188.096 518.054 181.701 498.095C175.304 478.14 174.092 470.882 174.092 470.882C174.092 470.882 131.371 475.722 113.398 475.117C95.425 474.511 81.035 476.324 81.035 476.324C81.035 476.324 93.6831 489.024 90.9227 517.448C88.1622 545.872 78.6302 568.245 86.7247 590.016C86.7247 590.016 94.2196 594.856 95.1236 603.927C96.0307 612.998 90.9257 620.253 90.9257 620.253L86.7247 622.069L7.98532 621.464C7.98532 621.464 -1.70644 616.624 0.26446 610.577C2.23536 604.529 9.21185 605.135 13.892 605.135C18.5721 605.135 33.0434 596.669 40.3303 591.227C47.6202 585.785 55.7027 577.316 54.9885 562.803C54.2773 548.29 47.6202 486.606 45.2003 476.324C42.7774 466.046 36.8074 443.669 47.6594 438.833C58.5114 433.993 80.9898 425.527 101.217 418.875C121.447 412.225 147.467 407.885 147.467 407.885C147.467 407.885 138.39 366.147 133.55 358.645C128.707 351.146 122.656 345.701 122.656 337.235C122.656 328.77 120.842 317.883 120.842 317.883C120.842 317.883 108.133 309.817 112.973 290.266C117.816 270.714 129.313 269.459 138.39 260.713C147.467 251.967 153.518 242.896 152.307 236.243C151.098 229.591 151.098 221.125 142.627 221.125C134.153 221.125 128.707 222.336 128.707 218.707C128.707 215.078 130.323 211.65 130.121 209.636C129.919 207.621 130.726 207.217 130.925 206.208C131.127 205.199 128.909 204.998 128.505 202.983C128.102 200.968 128.505 196.33 128.505 196.33C128.505 196.33 123.06 194.921 123.464 192.903C123.867 190.888 123.665 190.283 126.691 188.672C129.717 187.057 131.531 184.034 131.733 181.414C131.935 178.793 131.329 161.66 137.178 154.806C143.028 147.951 152.307 144.524 152.307 144.524C152.307 144.524 154.124 106.629 158.56 95.3382C162.999 84.0506 166.63 63.8937 167.236 58.6505C167.839 53.4103 166.428 49.5795 166.428 49.5795C166.428 49.5795 165.823 67.321 154.528 68.5287C143.23 69.7393 135.768 66.5139 134.557 61.876C133.348 57.2411 129.313 38.8972 130.726 33.2534C132.137 27.6097 132.339 18.1351 139.198 17.3279C146.057 16.5209 157.957 15.7167 159.973 21.7641C161.989 27.8114 165.621 32.2446 165.621 32.2446C165.621 32.2446 168.243 29.2209 172.076 28.0102C175.909 26.8026 178.127 27.8115 179.137 25.5919C180.143 23.3753 177.157 20.1498 182.383 20.5534C187.608 20.957 187.406 19.5446 189.826 18.3369C192.246 17.1262 192.852 16.3191 194.669 17.3279C196.483 18.3369 199.711 21.7641 201.525 21.3605C203.342 20.957 205.56 20.3516 205.56 20.3516Z" fill="#CFC6C1" style="fill:#CFC6C1;fill:color(display-p3 0.8118 0.7765 0.7569);fill-opacity:1;"/>
</svg>
