<svg width="343" height="629" viewBox="0 0 343 629" fill="none" xmlns="http://www.w3.org/2000/svg">
<path d="M408.605 565C370.284 565 318.405 516.94 271.652 473.627C260.004 462.836 249.003 452.644 238.293 443.218C174.776 387.319 3.6839 312.542 2 311.801L6.90929 310C8.59319 310.741 176.373 384.82 240.228 441.014C250.966 450.468 261.982 460.673 273.64 471.476C329.71 523.413 393.258 582.294 429.709 555.307C433.535 552.474 435.897 548.063 436.73 542.185C444.688 486.06 313.88 317.04 312.58 315.332L314.907 313.552C320.25 320.555 447.759 485.263 439.627 542.598C438.683 549.281 435.931 554.349 431.452 557.666C424.602 562.734 416.922 565 408.605 565Z" fill="#CFC6C1" style="fill:#CFC6C1;fill:color(display-p3 0.8118 0.7765 0.7569);fill-opacity:1;"/>
<path d="M177.796 444.604C176.698 451.557 170.119 472.412 169.751 480.463C169.386 488.514 167.559 495.831 171.581 504.978C175.6 514.127 174.138 556.205 169.021 566.085L167.194 567.913C167.194 567.913 161.341 554.008 161.709 539.008C162.074 524.004 166.096 493.269 166.461 489.977C166.826 486.682 172.311 441.312 177.796 434.359C177.796 434.359 178.893 437.652 177.796 444.604ZM296.621 299.524L294.061 290.558C294.061 290.558 288.394 279.032 285.469 276.655C282.544 274.276 279.255 269.338 277.61 267.506C275.965 265.677 257.866 245.37 254.026 237.687C250.189 230.001 239.584 208.964 231.175 202.559C231.175 202.559 231.357 185.909 227.703 173.653C224.045 161.394 220.755 153.894 220.938 152.248C221.12 150.602 223.863 142.368 222.583 131.576C221.303 120.78 215.271 110.535 209.968 108.889C204.669 107.243 199.732 103.4 195.709 102.849C191.69 102.302 188.583 101.937 188.032 101.571C187.485 101.203 183.28 99.7397 181.818 94.4363C180.356 89.1298 178.893 82.9105 177.613 79.4326C176.333 75.9578 176.516 69.7354 176.516 69.7354C176.516 69.7354 184.56 64.432 186.205 62.6003C187.85 60.7716 188.397 58.2096 187.485 56.1984C186.57 54.1872 185.472 51.9904 185.29 50.1617C185.108 48.33 183.28 45.2203 183.463 43.7567C183.645 42.2932 183.645 41.5629 182.915 40.4645C182.183 39.3661 181.453 38.2676 180.356 37.5374C179.258 36.8041 179.076 35.158 179.076 34.6104C179.076 34.0596 180.356 32.9642 180.356 31.1325C180.356 29.3038 180.72 29.1213 179.076 27.6577C177.431 26.1942 176.333 26.3767 176.333 26.3767C176.333 26.3767 176.151 23.2671 175.418 21.2527C174.688 19.2415 173.408 17.5955 173.408 17.5955C173.408 17.5955 166.461 6.61731 157.322 3.69025C148.18 0.763123 140.138 -2.89417 132.458 3.69025C124.781 10.2777 113.812 19.059 112.717 26.7418C111.62 34.4278 110.887 51.6252 116.737 56.381C122.586 61.1367 130.266 68.0894 132.458 72.48C134.653 76.8706 136.116 80.5311 132.826 83.8232C129.533 87.1155 125.511 89.6774 119.296 90.7758C113.082 91.8743 114.136 94.8014 111.963 96.2649C109.789 97.7285 102.477 94.8014 97.7253 102.119C92.9733 109.437 84.1989 117.12 83.831 122.609C83.4662 128.098 86.391 137.612 83.831 141.638C81.2741 145.66 77.6166 157.372 76.519 166.518C75.4214 175.665 75.4214 182.982 69.9398 189.57C64.455 196.157 56.7751 209.329 55.3127 221.403C53.8503 233.479 52.023 254.699 49.831 260.556C47.6358 266.411 46.9062 270.068 42.5159 271.897C38.1287 273.728 30.087 279.217 27.5271 280.681C24.9671 282.145 24.2374 284.338 23.1399 289.094C22.0423 293.853 20.2151 299.342 20.2151 299.342L0.288734 309.036C0.288734 309.036 -1.17367 310.5 2.48388 312.331C6.13833 314.16 31.1846 300.988 31.1846 300.988C31.1846 300.988 30.6343 305.744 33.1943 306.66C35.7542 307.572 35.2039 306.109 35.2039 306.109C35.2039 306.109 37.2166 308.123 40.1414 307.572C43.0662 307.025 44.3462 306.109 44.8934 305.744C45.4438 305.379 46.7207 303.915 46.7207 303.915C46.7207 303.915 49.6455 304.098 51.111 303.55C52.5734 302.999 54.4006 300.255 55.3127 299.342C56.2278 298.426 55.863 292.937 55.863 292.937C55.863 292.937 61.5302 286.353 62.6277 282.692C63.7222 279.032 64.0901 276.29 65.735 273.36C67.3798 270.433 81.1659 247.381 86.7032 239.881C92.2406 232.381 96.6278 215.001 99.1877 205.669C101.748 196.34 109.975 170.544 109.975 170.544C109.975 170.544 118.932 188.837 121.309 195.607C123.684 202.377 124.781 204.205 126.791 214.818C128.804 225.428 129.168 236.224 129.168 236.224C129.168 236.224 124.964 234.76 123.684 237.687C122.404 240.614 114.18 258.725 112.9 262.02C111.62 265.312 105.588 287.448 104.673 296.415C103.757 305.379 101.383 347.456 102.477 363.008C103.575 378.559 102.477 396.672 102.845 398.136C103.21 399.599 105.22 399.231 107.232 399.049C109.242 398.866 110.522 399.599 110.522 396.304C110.522 393.012 113.629 386.975 113.629 386.975C113.629 386.975 117.469 390.633 120.029 393.012C122.586 395.391 126.061 397.211 127.524 399.228C128.986 401.246 130.266 400.877 131.364 400.877C132.458 400.877 137.578 401.428 137.578 401.428C137.578 401.428 139.223 413.684 138.308 420.272C137.396 426.859 133.556 435.823 129.716 445.703C125.879 455.582 122.039 469.853 124.964 486.134C127.888 502.416 135.565 544.862 137.76 550.351C139.956 555.84 138.493 560.413 137.578 562.424C136.663 564.439 135.565 565.351 135.565 565.351C135.565 565.351 134.836 564.804 133.373 568.278C131.911 571.756 129.351 575.049 128.621 577.245C127.888 579.439 128.986 581.268 127.341 582.366C125.696 583.465 124.599 584.381 123.866 586.757C123.136 589.136 125.146 592.429 126.061 594.075C126.976 595.721 130.996 598.283 132.093 597.735C133.191 597.187 133.556 597.918 135.383 600.114C137.213 602.308 147.085 614.932 148.362 616.396C149.642 617.86 149.824 622.984 158.967 625.725C168.106 628.469 185.655 627.557 191.69 627.374C197.722 627.189 197.357 626.093 197.357 626.093C197.357 626.093 199.184 628.104 208.141 628.652C217.098 629.203 223.68 629.02 224.595 628.652C225.507 628.287 226.24 622.798 226.24 622.798C226.24 622.798 227.703 618.59 225.143 615.115C222.583 611.64 216.551 609.443 216.551 609.443C216.551 609.443 213.991 603.224 211.431 601.21L208.874 599.199L206.131 591.698C206.131 591.698 200.282 579.074 199.914 576.695C199.549 574.318 199.184 573.95 199.367 572.304C199.549 570.658 200.464 569.377 199.002 568.647L197.539 567.913C197.539 567.913 196.26 561.326 199.549 546.325C202.839 531.325 212.528 496.93 214.359 485.036C216.186 473.145 216.368 446.25 217.648 441.495C218.928 436.739 220.208 432.713 220.208 428.323C220.208 423.932 220.755 408.013 220.755 408.013C220.755 408.013 230.992 408.563 233.37 407.83C235.744 407.1 237.575 406.184 237.207 404.72C236.842 403.257 236.295 385.512 236.295 376.73C236.295 367.946 234.467 341.42 234.282 332.456C234.099 323.489 232.819 294.766 232.09 290.743C231.357 286.718 230.263 272.082 227.885 269.338C225.507 266.593 222.218 264.396 222.218 264.396C222.218 264.396 225.325 257.444 223.68 255.798C222.035 254.151 221.12 253.604 219.293 253.421C217.466 253.236 219.475 241.527 219.475 241.527C219.475 241.527 232.637 257.079 239.219 261.834C245.799 266.593 257.501 277.203 258.048 277.568C258.595 277.936 258.413 284.521 260.058 287.083C261.706 289.645 258.781 289.645 260.058 291.473C261.338 293.302 267.187 299.342 268.103 299.524C269.018 299.707 269.383 301.171 270.663 301.901C271.943 302.634 273.587 302.634 275.05 302.269C276.512 301.901 278.522 303.55 279.984 303.915C281.447 304.28 283.094 303.182 283.824 303.182C284.557 303.182 284.557 304.463 286.384 305.561C288.211 306.66 289.126 306.477 290.224 305.926C291.319 305.379 293.149 301.536 293.149 301.536L312.707 316.904L316 314.5L296.621 299.524Z" fill="#CFC6C1" style="fill:#CFC6C1;fill:color(display-p3 0.8118 0.7765 0.7569);fill-opacity:1;"/>
</svg>
