<svg width="642" height="589" viewBox="0 0 642 589" fill="none" xmlns="http://www.w3.org/2000/svg">
<path d="M550.33 91.1318C550.33 91.1318 561.966 86.4381 566.165 71.7928C570.365 57.1474 568.042 47.573 561.258 42.0624C554.475 36.5555 534.16 14.5654 519.832 14.1222C505.505 13.6789 485.021 15.2394 471.921 34.2574C458.82 53.2754 455.883 81.9238 455.883 81.9238C455.883 81.9238 435.797 75.9773 421.803 76.5585C407.809 77.1434 372.098 61.1866 361.872 59.747C351.647 58.311 346.206 55.5429 339.013 59.5834C331.817 63.6275 276.907 108.286 275.546 107.595C274.189 106.904 265.011 101.717 258.544 99.623C252.077 97.5289 244.673 95.4281 244.673 95.4281C244.673 95.4281 245.766 85.4523 243.228 82.6198C240.69 79.7872 239.404 80.5446 238.884 81.8221C238.36 83.096 238.794 94.3639 238.794 94.3639L235.727 93.5717L235.817 81.03C235.817 81.03 232.241 79.9823 231.432 85.8645C230.624 91.7429 228.546 96.0792 229.553 98.1342C230.564 100.189 248.126 113.117 248.126 113.117L238.925 111.769L226.212 100.417C226.212 100.417 223.981 90.4178 217.845 89.6036C217.845 89.6036 215.8 89.3335 214.51 90.6055C214.51 90.6055 224.604 110.386 234.537 117.115C244.47 123.841 272.358 124.296 277.227 123.049C282.101 121.807 353.237 86.4771 357.829 88.3023C362.421 90.1275 400.951 105.764 405.038 106.815C405.038 106.815 386.71 128.954 377.059 154.737C367.405 180.523 368.959 213.81 357.328 229.594C345.702 245.383 325.187 251.379 315.433 255.405C305.682 259.431 284.616 270.541 282.115 298.171C279.615 325.797 280.363 328.876 271.625 333.675C262.891 338.475 239.259 351.104 224.491 376.598C209.722 402.088 186.937 403.461 165.895 411.758C144.848 420.054 119.379 439.068 105.976 452.796C92.5685 466.524 73.941 495.315 59.8537 497.003C45.7664 498.695 35.5747 492.478 32.0005 491.175C28.4299 489.868 18.9716 488.264 17.395 493.885C15.8185 499.506 1.3116 560.322 0.258702 564.155C-0.790498 567.987 5.23182 584.668 18.0236 585.015C30.8154 585.363 42.8446 585.193 42.8446 585.193C42.8446 585.193 47.2584 576.267 39.3436 573.651C31.4289 571.032 29.661 567.694 30.2031 563.858C30.7414 560.022 69.8036 537.009 74.9727 529.621C80.1455 522.237 108.932 504.268 131.556 489.584C154.181 474.901 231.701 441.409 252.507 430.552C273.312 419.692 309.019 401.006 325.263 383.462C341.511 365.915 357.002 347.084 357.002 347.084C357.002 347.084 397.096 358.377 424.495 355.759C451.894 353.14 482.59 354.893 484.626 356.445C484.626 356.445 465.023 378.319 463.842 400.067C462.664 421.818 458.545 478.952 451.563 489.397C444.576 499.841 440.212 501.858 440.212 501.858C440.212 501.858 438.427 500.819 435.846 504.13C433.264 507.441 418.839 520.646 417.802 522.176C416.769 523.701 413.64 532.13 418.729 536.002C423.817 539.879 438.066 551.246 440.867 553.569C443.664 555.892 449.3 555.166 455.647 562.122C461.995 569.077 467.012 582.937 476.461 585.819C485.91 588.704 508.166 589.375 510.226 587.597C512.286 585.82 513.621 578.149 505.218 572.46C496.814 566.768 485.159 550.302 485.224 541.344C485.288 532.383 483.575 521.365 485.642 518.566C487.709 515.762 484.672 511.39 480.052 512.893C480.052 512.893 481.729 493.194 488.501 476.604C495.276 460.015 529.803 372.895 535.27 360.136C540.733 347.377 542.932 326.145 528.144 318.618C513.357 311.087 441.863 288.82 424.751 284.346C407.639 279.872 404.086 275.492 406.17 270.389C408.254 265.283 415.275 249.465 435.82 239.373C456.364 229.281 457.932 224.941 459.499 220.601C461.063 216.261 467.498 210.931 471.857 210.195C476.212 209.456 489.995 214.165 497.549 195.789C505.099 177.413 501.453 151.02 501.716 150C501.978 148.976 506.901 140.309 512.276 140.348C517.648 140.386 536.259 149.988 552.863 154.203C569.466 158.417 603.73 162.247 619.608 160.824C635.481 159.404 640.103 157.645 640.885 155.348C641.668 153.05 640.609 122.581 635.895 101.558C631.185 80.5346 623.775 43.1098 624.574 39.0199C625.37 34.9299 625.68 27.252 623.658 23.6529C621.637 20.0538 614.08 3.10608 613.325 1.56761C612.57 0.0254243 609.24 0.257089 607.439 1.52548C605.638 2.79015 603.873 -0.362704 600.283 0.415215C596.694 1.18941 596.171 2.97788 596.92 5.28659C596.92 5.28659 593.615 2.70409 591.299 3.9688C588.987 5.22981 589.48 8.30696 589.212 9.58632C588.947 10.862 586.659 8.79777 584.597 10.8309C582.536 12.8639 581.499 14.9043 581.486 16.6965C581.474 18.4887 582.203 23.6117 580.384 27.4388C578.565 31.2659 580.831 36.9145 583.378 38.4658C585.925 40.0208 602.522 45.0055 604.788 50.1394C607.054 55.2733 610.445 82.1748 608.608 88.5643C606.77 94.9501 600.26 110.771 603.783 119.243C603.783 119.243 565.648 120.252 560.541 118.423C555.438 116.594 544.493 108.069 544.493 108.069C544.493 108.069 548.064 109.887 549.096 108.357C550.133 106.832 550.33 91.1318 550.33 91.1318Z" fill="#CFC6C1" style="fill:#CFC6C1;fill:color(display-p3 0.8118 0.7765 0.7569);fill-opacity:1;"/>
</svg>
